<?xml version="1.0" standalone="no"?>
<!DOCTYPE svg PUBLIC "-//W3C//DTD SVG 20010904//EN"
 "http://www.w3.org/TR/2001/REC-SVG-20010904/DTD/svg10.dtd">
<svg version="1.0" xmlns="http://www.w3.org/2000/svg"
 width="1016.000000pt" height="210.000000pt" viewBox="0 0 1016.000000 210.000000"
 preserveAspectRatio="xMidYMid meet">

<g transform="translate(0.000000,210.000000) scale(0.100000,-0.100000)"
fill="#000000" stroke="none">
<path d="M1450 2037 c-118 -113 -345 -282 -516 -385 -163 -97 -272 -148 -379
-177 -152 -41 -538 -164 -549 -175 -26 -26 15 -19 136 23 172 59 308 100 314
94 10 -9 -289 -116 -413 -147 l-43 -11 0 -63 c0 -59 2 -64 20 -59 35 9 42 28
26 66 l-14 36 79 25 c44 14 82 26 85 26 2 0 4 -9 4 -20 0 -12 8 -35 17 -53 10
-18 18 -49 19 -71 2 -57 33 -91 80 -90 44 2 64 23 64 70 0 26 -8 39 -35 59
-19 15 -37 37 -41 48 -4 12 -15 34 -26 50 -15 21 -16 28 -6 32 19 6 110 41
129 49 11 5 20 -4 34 -34 20 -45 50 -53 80 -20 16 18 16 21 -5 55 l-22 35 29
11 c15 5 50 20 78 33 l49 23 12 -23 c26 -50 71 -97 61 -65 -1 4 9 18 23 29 25
20 25 21 7 51 -19 32 -16 51 7 51 8 0 35 9 61 21 52 23 59 20 72 -31 3 -14 12
-34 19 -45 8 -11 14 -30 14 -43 0 -12 7 -34 16 -47 32 -49 124 -19 124 41 0
16 -16 42 -44 72 -24 26 -50 60 -58 76 l-15 30 68 34 68 35 24 -28 24 -28 31
23 c36 27 38 32 17 50 -25 20 -17 33 42 73 l57 39 25 -31 c31 -37 41 -38 70
-7 l23 25 -28 36 -27 36 44 46 c24 26 50 53 58 62 11 13 18 9 50 -25 20 -21
43 -54 50 -72 15 -36 55 -72 80 -72 25 0 71 52 66 75 -2 11 -4 25 -4 32 -1 6
-21 21 -46 33 -25 12 -58 34 -73 49 -15 15 -36 32 -46 38 -18 10 -18 12 12 44
38 40 40 49 10 49 -14 -1 -49 -25 -88 -63z m-42 -88 c-44 -55 -204 -195 -246
-215 -18 -8 -40 -14 -50 -12 -11 2 13 25 72 67 48 35 107 80 130 100 66 56
121 101 124 101 2 0 -12 -18 -30 -41z m231 -75 c17 -21 18 -29 8 -45 -14 -23
-47 -25 -47 -4 0 8 -4 15 -9 15 -12 0 -24 37 -16 50 11 18 43 10 64 -16z
m-569 -182 c0 -12 -23 -30 -74 -55 -106 -53 -113 -46 -15 17 46 30 85 55 87
55 1 1 2 -7 2 -17z m-66 -248 c13 -34 7 -56 -15 -52 -27 4 -44 30 -36 52 8 21
43 21 51 0z m-688 -272 c6 -4 16 -17 22 -28 15 -29 -6 -59 -35 -50 -25 8 -39
52 -22 72 13 16 19 17 35 6z"/>
<path d="M1961 2069 c-6 -18 -11 -38 -11 -45 0 -24 43 -54 76 -54 46 0 64 22
64 81 l0 49 -59 0 c-57 0 -59 -1 -70 -31z m97 -6 c2 -13 -5 -27 -20 -37 -22
-16 -23 -15 -31 9 -6 17 -5 31 4 41 17 20 43 13 47 -13z"/>
<path d="M2285 2080 c-8 -26 -5 -30 40 -46 28 -9 35 -9 35 1 0 6 8 21 18 33
19 21 19 21 83 4 l64 -18 -3 -52 -4 -52 40 0 c39 0 40 1 47 40 4 22 10 40 13
40 4 0 41 -7 82 -16 l76 -16 -9 -62 c-5 -33 -16 -75 -23 -93 -30 -69 -7 -113
60 -113 53 0 70 20 61 73 -3 23 -9 73 -11 111 l-6 69 59 -7 c105 -13 103 -12
103 -67 l0 -49 40 0 40 0 0 46 0 47 61 -7 c34 -3 73 -6 85 -6 22 0 24 -4 24
-49 0 -34 4 -51 15 -55 8 -3 15 -1 15 4 0 6 9 6 25 0 25 -9 25 -9 25 41 0 50
0 51 28 45 15 -3 49 -8 75 -12 l49 -7 -6 -61 c-3 -33 -8 -82 -12 -109 -4 -31
-2 -52 6 -62 15 -18 91 -20 108 -3 14 14 16 82 3 106 -5 9 -11 41 -13 70 l-4
52 77 0 78 0 7 -35 c6 -33 9 -35 45 -35 38 0 39 1 39 34 0 34 1 35 48 41 26 3
59 9 75 11 24 5 27 3 27 -23 0 -45 19 -64 55 -55 31 9 35 22 22 73 -6 25 -4
27 66 49 39 13 77 25 83 27 15 5 24 -32 34 -136 8 -90 15 -101 68 -101 34 0
72 29 72 55 0 20 -29 76 -45 90 -7 6 -17 28 -23 50 -5 22 -13 47 -16 56 -5 12
10 23 70 48 42 18 77 31 78 29 19 -42 47 -84 58 -86 8 -2 25 6 39 16 l23 20
-19 36 c-19 35 -22 36 -75 36 -30 0 -87 -9 -125 -20 -225 -65 -543 -110 -825
-117 -184 -4 -203 -3 -310 22 -63 14 -205 44 -315 67 -183 37 -217 41 -397 45
-195 5 -196 5 -203 -17z m356 -10 c271 -47 308 -54 379 -71 l75 -19 -65 5
c-98 8 -291 42 -420 74 -137 34 -126 38 31 11z m1557 -55 c-8 -8 -167 -55
-241 -70 -76 -17 -145 -19 -166 -6 -19 12 -5 17 69 25 67 7 287 44 305 51 15
5 39 6 33 0z m-454 -80 c-21 -16 -96 -19 -195 -7 l-64 7 100 6 c195 10 181 11
159 -6z m571 -75 c23 -25 29 -70 9 -70 -8 0 -14 -4 -14 -10 0 -19 -28 2 -40
30 -9 21 -9 34 0 49 13 26 22 26 45 1z m-1480 -31 c8 -23 -3 -59 -16 -59 -6 0
-7 -5 -3 -12 5 -8 2 -9 -10 -5 -10 4 -25 7 -34 8 -10 0 -12 3 -5 5 8 4 10 16
7 33 -10 51 46 78 61 30z m723 -66 c10 -16 -4 -63 -18 -63 -22 0 -41 56 -23
73 12 12 32 7 41 -10z"/>
<path d="M4864 2074 c-22 -33 -20 -82 3 -100 10 -7 35 -14 55 -14 56 0 81 47
62 118 -6 19 -13 22 -55 22 -41 0 -51 -4 -65 -26z m83 -10 c7 -18 -12 -64 -26
-64 -17 0 -29 34 -20 58 10 25 37 29 46 6z"/>
<path d="M5180 2066 c0 -26 5 -35 23 -40 44 -12 55 -7 61 28 l7 35 56 -20 c31
-10 65 -19 75 -19 18 0 19 -6 16 -52 -3 -48 -1 -52 25 -60 43 -15 57 -4 57 43
0 29 4 40 13 36 6 -2 44 -10 83 -17 l70 -13 -4 -61 c-2 -33 -11 -71 -19 -84
-8 -13 -13 -40 -11 -65 4 -52 39 -77 85 -61 43 15 57 53 38 106 -8 24 -15 67
-15 96 0 59 -4 58 98 41 l67 -11 0 -47 0 -46 40 0 c40 0 40 0 43 43 l3 43 77
-7 c42 -4 79 -8 81 -10 4 -3 6 -21 9 -86 2 -26 3 -26 33 -16 25 8 33 8 40 -3
6 -9 9 6 9 42 l0 55 73 -11 72 -11 -2 -34 c-1 -19 -7 -65 -14 -101 -8 -48 -9
-71 -1 -86 13 -24 52 -34 90 -24 36 10 50 67 28 112 -9 18 -16 54 -16 81 l0
49 78 -5 c76 -4 77 -5 80 -33 5 -35 15 -42 55 -34 28 6 32 11 29 38 -3 29 -2
30 50 36 89 11 98 10 98 -16 0 -41 22 -60 59 -52 33 7 33 7 28 55 l-6 47 74
23 c73 23 85 25 85 15 1 -3 7 -26 15 -52 7 -27 12 -67 11 -91 -4 -61 23 -89
81 -83 7 0 22 11 35 24 28 27 26 58 -8 103 -14 17 -32 56 -42 85 l-17 54 75
32 75 32 23 -45 c24 -48 28 -50 67 -32 30 13 31 25 8 73 -17 34 -20 36 -63 32
-25 -2 -97 -18 -160 -35 -252 -69 -492 -102 -790 -109 -217 -5 -228 -4 -325
20 -121 31 -196 46 -446 92 -158 29 -217 35 -326 35 l-133 0 0 -34z m358 -6
c211 -37 437 -82 452 -91 17 -9 1 -8 -165 17 -166 24 -466 90 -422 93 10 1 71
-8 135 -19z m1562 -54 c0 -7 -164 -56 -237 -71 -82 -17 -150 -22 -159 -12 -11
11 -62 8 -69 -3 -7 -11 -162 -12 -210 -1 -19 4 26 10 115 14 80 4 163 10 185
13 78 10 231 35 295 49 79 16 80 16 80 11z m119 -172 c10 -22 9 -31 -4 -50
l-16 -24 -25 23 c-20 19 -24 29 -19 50 10 37 47 37 64 1z m-1487 -24 c3 -21
-1 -35 -16 -49 -19 -18 -22 -18 -36 -3 -32 35 -18 82 25 82 18 0 24 -7 27 -30z
m718 -55 c16 -19 -2 -65 -25 -65 -20 0 -31 46 -15 65 16 19 24 19 40 0z"/>
<path d="M7634 2085 c21 -16 44 -19 70 -9 32 12 14 24 -36 24 -49 -1 -51 -2
-34 -15z"/>
<path d="M7920 2091 c0 -14 25 -30 49 -33 15 -2 28 5 38 20 15 22 15 22 -36
22 -28 0 -51 -4 -51 -9z"/>
<path d="M8045 2090 c4 -6 25 -20 48 -31 66 -34 67 -34 44 -81 -20 -40 -20
-41 -2 -54 34 -25 62 -17 75 21 6 19 14 35 17 35 3 0 114 -59 140 -75 6 -3
-45 -115 -65 -139 -20 -27 -24 -36 -25 -68 -1 -28 17 -48 48 -54 67 -12 85 7
90 99 3 57 16 127 24 127 20 0 149 -65 144 -73 -3 -5 -9 -24 -13 -43 -9 -40 6
-57 47 -52 22 2 29 10 36 39 l8 36 75 -24 c80 -27 79 -26 65 -101 -7 -37 -6
-42 7 -37 8 3 25 -1 37 -9 21 -14 22 -13 35 35 15 54 17 55 45 35 11 -7 37
-19 58 -25 24 -8 37 -19 37 -30 0 -28 -21 -82 -47 -119 -26 -40 -30 -84 -8
-102 8 -7 35 -15 58 -17 41 -5 44 -3 56 26 7 17 11 48 8 68 -5 39 12 123 24
123 4 0 37 -9 73 -20 l66 -21 0 -40 0 -40 38 3 c32 3 37 7 40 31 3 24 7 28 25
24 12 -3 43 -9 70 -12 l47 -7 0 -44 0 -44 39 0 c38 0 39 1 45 45 l7 45 82 0
82 0 -2 -57 c-2 -32 -8 -77 -15 -100 -18 -65 -1 -93 56 -93 36 0 47 5 61 26
15 23 15 30 1 77 -8 29 -17 75 -19 104 l-4 52 36 5 c20 3 57 8 82 12 l46 6 7
-51 c7 -54 13 -58 64 -44 22 5 23 10 18 48 -6 38 -5 43 16 49 13 3 38 6 56 6
27 0 32 3 32 25 0 29 7 29 -95 10 -322 -58 -1038 46 -1295 188 -105 58 -366
190 -503 253 -105 49 -148 64 -183 64 -28 0 -43 -4 -39 -10z m167 -57 c26 -13
50 -23 53 -23 10 0 390 -191 400 -201 11 -11 -172 65 -260 108 -87 42 -275
144 -275 148 0 6 23 -3 82 -32z m178 -311 c0 -8 -11 -25 -24 -37 -23 -22 -26
-22 -40 -6 -22 24 -20 43 5 70 20 21 22 21 40 5 10 -9 19 -24 19 -32z m801
-98 c65 -12 87 -20 79 -28 -12 -12 -110 10 -171 38 -19 9 -26 14 -16 11 10 -3
59 -12 108 -21z m299 -49 c74 -8 158 -15 185 -16 44 0 47 -1 25 -11 -15 -6
-73 -8 -150 -4 -181 9 -217 15 -223 38 -4 14 -1 18 11 14 9 -3 78 -12 152 -21z
m-440 -104 c0 -28 -22 -47 -41 -35 -10 6 -12 47 -2 57 3 4 15 7 25 7 13 0 18
-8 18 -29z m734 -87 c21 -20 21 -70 0 -78 -27 -10 -34 -7 -45 20 -7 20 -6 32
6 50 18 28 19 29 39 8z"/>
<path d="M9688 2073 c7 -3 16 -2 19 1 4 3 -2 6 -13 5 -11 0 -14 -3 -6 -6z"/>
<path d="M2700 1730 c0 -5 7 -10 15 -10 8 0 15 5 15 10 0 6 -7 10 -15 10 -8 0
-15 -4 -15 -10z"/>
<path d="M6060 1472 c-19 -9 -46 -35 -61 -57 -50 -77 -109 -294 -109 -403 0
-58 -55 -176 -103 -219 -37 -33 -99 -58 -123 -49 -42 16 -59 169 -28 259 18
53 34 70 59 61 13 -5 16 -17 13 -53 -3 -44 0 -51 21 -51 15 0 24 76 11 100 -6
12 -27 28 -45 36 -89 37 -159 -4 -190 -113 -6 -21 -34 -35 -100 -47 l-30 -6
-43 112 -44 111 20 46 c42 94 39 140 -10 164 -45 22 -81 6 -104 -45 -17 -39
-17 -44 -1 -141 l17 -101 -34 -71 c-79 -162 -216 -341 -275 -360 -12 -3 -21
-11 -21 -16 0 -18 38 -8 77 20 72 52 137 141 220 299 21 39 40 72 44 72 5 0
34 -95 34 -111 0 -4 -28 -28 -62 -53 -105 -77 -148 -155 -122 -219 50 -123
224 -108 296 26 13 24 17 57 18 129 l0 97 58 19 57 19 0 -58 c0 -47 5 -65 33
-105 40 -60 68 -76 129 -71 62 5 138 55 187 123 l38 53 7 -107 c6 -94 9 -109
29 -124 12 -10 32 -18 43 -18 19 0 22 7 26 63 6 72 39 155 74 188 21 20 27 21
35 9 5 -8 7 -31 4 -50 -2 -19 -8 -82 -11 -140 -10 -169 13 -218 99 -207 63 9
112 82 144 216 l16 68 26 -29 c22 -25 36 -30 87 -35 75 -7 119 11 173 73 l38
44 7 -42 c10 -65 34 -105 72 -123 44 -21 94 -5 118 37 21 34 36 28 36 -15 0
-91 44 -157 105 -157 59 0 88 41 141 204 l32 100 11 -41 c14 -52 34 -68 83
-67 31 1 47 9 77 38 20 20 40 36 44 36 4 0 7 -14 7 -30 0 -35 23 -96 47 -122
10 -12 30 -18 56 -18 32 0 46 6 72 34 18 19 43 60 56 90 12 31 26 56 29 56 4
0 10 -31 13 -68 8 -82 22 -126 55 -169 68 -90 193 7 242 187 13 45 13 45 22
17 12 -34 73 -67 126 -67 91 0 157 48 202 145 31 67 40 107 25 111 -5 2 -22
-27 -38 -64 -36 -89 -94 -152 -139 -152 -33 0 -68 42 -74 91 -6 45 -6 46 25
52 41 8 77 45 90 92 19 71 -22 112 -102 102 -74 -10 -108 -54 -128 -164 -11
-65 -34 -142 -55 -190 -8 -17 -14 -36 -14 -42 0 -6 -5 -11 -11 -11 -5 0 -8 -4
-5 -9 6 -9 -36 -67 -59 -83 -39 -29 -53 20 -65 222 -10 165 -9 170 41 224 28
29 85 145 102 206 25 89 29 135 17 180 -9 34 -18 44 -48 57 -34 14 -39 14 -79
-6 -77 -37 -114 -143 -138 -397 -16 -174 -32 -252 -70 -330 -29 -59 -58 -89
-79 -81 -24 9 -38 109 -31 213 7 95 7 95 -21 125 -50 52 -74 34 -74 -57 0 -57
-27 -131 -58 -154 -36 -29 -45 -14 -42 67 1 37 2 75 2 83 0 8 4 42 9 75 9 65
-2 98 -40 110 -44 14 -57 -8 -80 -132 -35 -186 -112 -398 -148 -411 -21 -6
-34 47 -45 183 l-10 130 35 75 c72 158 109 299 106 405 -1 44 1 88 6 98 10 24
-2 34 -25 19 -11 -7 -29 -12 -40 -12 -32 0 -106 -83 -129 -146 -23 -61 -51
-206 -51 -264 l0 -38 -64 1 c-83 2 -110 -16 -141 -99 -32 -84 -67 -138 -109
-163 -62 -39 -108 -10 -122 77 -6 39 -5 42 16 42 80 0 143 127 90 180 -25 25
-88 27 -134 5 -48 -23 -75 -79 -87 -182 -20 -180 -76 -344 -123 -359 -32 -10
-38 15 -30 126 13 176 10 227 -16 256 -29 29 -78 32 -109 5 -12 -10 -35 -43
-52 -72 l-30 -54 6 90 c5 86 7 91 38 115 59 47 120 115 138 155 38 87 43 222
9 284 -10 20 -57 61 -69 61 -3 0 -22 -8 -41 -18z m1838 -34 c43 -43 -25 -303
-102 -393 l-26 -30 5 30 c3 17 12 75 20 130 17 112 50 243 67 262 13 16 21 16
36 1z m-1754 -30 c20 -29 21 -147 2 -210 -15 -52 -57 -109 -112 -152 l-37 -29
6 84 c9 120 47 275 80 317 15 19 44 14 61 -10z m944 -39 c2 -30 -2 -80 -8
-111 -14 -73 -78 -275 -88 -282 -16 -10 9 257 32 344 22 83 35 112 49 108 7
-3 13 -27 15 -59z m-1790 -64 c5 -40 -19 -111 -30 -92 -10 19 -13 101 -4 116
13 20 31 7 34 -24z m1238 -289 c3 -14 0 -37 -8 -52 -14 -30 -62 -63 -74 -52
-8 9 13 98 28 115 18 22 47 15 54 -11z m1642 -14 c4 -42 -19 -78 -54 -85 -26
-5 -26 -4 -21 35 11 81 68 120 75 50z m-1288 -127 c0 -113 -12 -155 -51 -175
-39 -21 -71 38 -71 132 0 88 39 145 100 147 21 1 22 -2 22 -104z m-1621 -95
c2 -78 -15 -128 -57 -160 -64 -51 -112 -27 -112 56 0 35 6 51 33 80 35 41 118
105 128 99 3 -3 7 -36 8 -75z"/>
<path d="M2865 1438 c-59 -55 -90 -169 -111 -413 -6 -69 -10 -83 -35 -107 -20
-20 -37 -28 -64 -28 l-36 0 7 49 c12 92 -44 191 -109 191 -43 0 -84 -25 -90
-57 -3 -15 -16 -32 -28 -38 -12 -5 -31 -28 -43 -50 -25 -45 -106 -105 -142
-105 -20 0 -23 4 -19 28 2 15 9 81 15 147 6 66 13 136 15 155 6 51 -8 93 -36
107 -20 11 -26 10 -36 -3 -13 -17 -29 -123 -46 -304 -14 -148 -16 -149 -121
-101 -76 34 -73 26 -50 169 30 181 7 311 -56 320 -32 5 -40 -13 -40 -98 0 -41
-11 -165 -25 -274 -37 -291 -33 -366 15 -366 38 0 49 23 60 125 6 55 13 106
15 112 3 9 18 6 52 -11 26 -13 67 -27 91 -31 l42 -7 0 -99 c0 -131 24 -179 90
-179 21 0 80 53 80 71 0 15 -27 10 -34 -6 -7 -20 -32 -19 -40 1 -8 20 -8 162
0 192 4 12 14 22 23 22 9 0 40 11 69 25 30 14 55 25 57 25 1 0 5 -24 7 -53 6
-67 37 -129 71 -141 63 -23 155 37 178 115 12 37 14 39 53 39 23 0 55 9 73 19
l31 20 6 -72 c11 -118 27 -200 49 -238 33 -61 89 -78 142 -43 30 19 81 98 104
160 l18 46 12 -59 c17 -86 32 -103 91 -103 41 0 55 5 84 30 19 17 45 53 58 80
24 51 38 63 38 32 0 -28 30 -63 66 -78 29 -12 39 -12 69 0 19 8 44 30 55 48
15 25 20 28 20 14 0 -58 24 -147 45 -171 32 -33 92 -35 122 -3 28 31 60 96 74
152 6 25 15 46 20 46 5 0 9 -4 9 -9 0 -20 33 -41 65 -41 37 0 85 18 85 32 0 4
5 8 10 8 6 0 10 -5 10 -11 0 -24 33 -79 50 -84 51 -16 151 77 186 173 10 26
19 49 20 51 2 2 20 -15 42 -38 51 -54 99 -57 143 -10 l29 31 0 -48 c0 -40 -5
-54 -27 -74 -39 -37 -100 -134 -119 -192 -9 -28 -16 -76 -16 -106 0 -38 -5
-63 -17 -78 -9 -12 -23 -40 -31 -63 -11 -34 -11 -48 0 -81 15 -46 32 -64 82
-84 46 -20 85 -12 125 23 39 34 57 92 45 146 -7 34 -5 45 13 70 38 51 47 95
52 250 l5 150 66 60 c78 71 122 155 81 155 -6 0 -16 -15 -24 -34 -13 -31 -100
-126 -115 -126 -4 0 -7 78 -6 172 l1 173 -37 20 c-20 11 -40 17 -43 13 -4 -4
-12 -69 -18 -146 -11 -125 -15 -143 -40 -181 -63 -95 -89 -63 -85 104 1 66 -1
126 -5 133 -10 16 -52 16 -65 0 -5 -7 -22 -60 -37 -118 -31 -119 -70 -208
-115 -262 -50 -61 -60 -52 -60 50 0 76 -3 92 -20 107 -25 23 -42 10 -59 -46
-15 -49 -49 -99 -68 -99 -20 0 -16 113 6 187 10 34 29 76 41 93 20 28 24 30
37 17 8 -8 17 -33 20 -56 7 -50 30 -50 25 -1 -4 35 -25 76 -51 98 -22 18 -75
15 -102 -7 -24 -18 -67 -93 -74 -128 -32 -162 -109 -363 -138 -363 -23 0 -38
70 -44 200 -5 120 -5 128 19 175 49 98 106 286 114 377 8 87 -11 142 -50 146
-37 5 -106 -61 -135 -129 -27 -61 -51 -187 -51 -263 l0 -58 -44 6 c-57 9 -122
-8 -140 -37 -8 -12 -22 -64 -31 -114 -20 -107 -67 -210 -107 -232 -24 -14 -28
-14 -48 4 -20 18 -21 25 -14 120 3 55 10 122 14 150 9 60 -1 91 -35 107 -37
17 -52 -3 -69 -92 -38 -196 -116 -360 -171 -360 -3 0 -13 17 -22 38 -11 26
-17 83 -21 199 l-5 162 36 41 c72 84 137 254 137 358 0 70 -26 102 -86 102
-36 0 -51 -6 -79 -32z m125 -67 c0 -107 -47 -248 -106 -316 l-25 -30 6 65 c6
65 38 237 50 275 34 104 75 107 75 6z m750 40 c22 -41 1 -169 -56 -337 -36
-110 -43 -119 -44 -59 -1 137 53 415 80 415 5 0 14 -9 20 -19z m-1179 -341
c23 -31 37 -96 29 -133 l-5 -27 -26 22 c-58 52 -96 137 -72 162 14 14 56 0 74
-24z m-10 -186 l29 -15 -20 -37 c-29 -56 -45 -72 -68 -72 -28 0 -42 51 -42
150 l0 75 36 -43 c20 -23 49 -49 65 -58z m993 74 c3 -13 6 -62 6 -109 0 -82
-1 -87 -32 -123 -38 -43 -59 -41 -80 7 -17 42 -16 154 2 192 26 51 93 73 104
33z m935 -395 c1 -82 -14 -178 -28 -188 -5 -2 -23 0 -42 5 -20 6 -35 6 -39 0
-9 -14 -26 2 -33 31 -14 55 29 165 97 254 l31 39 6 -29 c4 -17 7 -67 8 -112z
m-149 -217 c0 -3 -4 -8 -10 -11 -5 -3 -10 -1 -10 4 0 6 5 11 10 11 6 0 10 -2
10 -4z m118 -21 c-3 -3 -9 2 -12 12 -6 14 -5 15 5 6 7 -7 10 -15 7 -18z m-65
8 c-7 -2 -19 -2 -25 0 -7 3 -2 5 12 5 14 0 19 -2 13 -5z m32 -36 l40 -2 3 -46
c5 -77 -59 -123 -115 -84 -26 18 -37 62 -28 115 6 37 8 39 33 29 15 -6 45 -11
67 -12z m75 -111 c0 -3 -4 -8 -10 -11 -5 -3 -10 -1 -10 4 0 6 5 11 10 11 6 0
10 -2 10 -4z m-170 -26 c0 -5 -2 -10 -4 -10 -3 0 -8 5 -11 10 -3 6 -1 10 4 10
6 0 11 -4 11 -10z"/>
<path d="M6660 1240 c-15 -27 -13 -32 12 -28 27 4 36 33 14 41 -10 4 -20 -1
-26 -13z"/>
<path d="M3127 1173 c-12 -12 -7 -60 7 -72 8 -7 27 -11 43 -9 22 2 29 9 31 30
3 21 -3 30 -27 42 -33 18 -44 19 -54 9z"/>
<path d="M1628 963 c7 -3 16 -2 19 1 4 3 -2 6 -13 5 -11 0 -14 -3 -6 -6z"/>
<path d="M826 921 c-3 -5 1 -11 9 -15 8 -3 15 -1 15 4 0 13 -18 22 -24 11z"/>
<path d="M9545 630 c3 -5 11 -10 16 -10 6 0 7 5 4 10 -3 6 -11 10 -16 10 -6 0
-7 -4 -4 -10z"/>
<path d="M2165 540 c3 -5 10 -10 16 -10 5 0 9 5 9 10 0 6 -7 10 -16 10 -8 0
-12 -4 -9 -10z"/>
<path d="M5090 504 c0 -9 5 -14 12 -12 18 6 21 28 4 28 -9 0 -16 -7 -16 -16z"/>
<path d="M7196 485 c-8 -8 -25 -15 -37 -15 -16 0 -20 -3 -12 -11 6 -6 28 -9
49 -7 32 2 40 7 42 26 4 26 -19 30 -42 7z"/>
<path d="M5265 371 c-81 -37 -110 -108 -77 -191 14 -35 58 -74 76 -67 9 4 16
3 16 -1 0 -4 12 -7 28 -6 15 1 37 2 50 3 16 1 22 7 22 26 0 22 -3 24 -29 19
-100 -20 -161 88 -90 158 27 28 34 30 75 24 42 -5 44 -4 44 19 0 20 -5 25 -24
25 -13 0 -30 2 -38 5 -7 2 -31 -4 -53 -14z m35 -15 c0 -2 -9 -6 -20 -9 -11 -3
-20 -1 -20 4 0 5 9 9 20 9 11 0 20 -2 20 -4z m-79 -59 c-10 -9 -11 -8 -5 6 3
10 9 15 12 12 3 -3 0 -11 -7 -18z m-1 -122 c7 -9 8 -15 2 -15 -5 0 -12 7 -16
15 -3 8 -4 15 -2 15 2 0 9 -7 16 -15z"/>
<path d="M7284 382 c3 -6 -2 -8 -12 -5 -10 2 -30 -5 -45 -17 -44 -35 -33 -96
23 -125 17 -9 30 -12 30 -9 0 4 9 -1 20 -11 12 -11 20 -28 18 -39 -2 -17 -12
-22 -42 -24 -22 -2 -50 2 -62 8 -12 7 -28 10 -36 7 -9 -4 -7 -6 5 -6 10 -1 16
-5 13 -10 -4 -5 -3 -16 0 -25 5 -12 21 -16 71 -16 56 0 67 3 88 26 46 50 23
98 -62 135 -33 14 -43 23 -39 35 3 9 6 20 6 26 0 7 21 9 55 6 48 -4 54 -3 52
13 -4 24 -6 25 -50 33 -25 5 -37 4 -33 -2z m-37 -108 c-3 -3 -12 -4 -19 -1 -8
3 -5 6 6 6 11 1 17 -2 13 -5z m123 -88 c0 -2 -7 -6 -15 -10 -8 -3 -15 -1 -15
4 0 6 7 10 15 10 8 0 15 -2 15 -4z"/>
<path d="M2800 245 l0 -135 25 0 c24 0 25 2 25 70 0 49 -4 70 -12 70 -10 0 -9
3 1 9 9 6 12 20 9 40 -2 17 -1 31 4 31 4 0 8 -10 8 -23 0 -13 4 -27 8 -33 5
-5 19 -44 32 -87 22 -71 26 -78 48 -75 19 2 29 14 43 51 11 26 20 63 22 82 1
18 6 31 11 28 5 -4 6 6 2 21 -4 17 -3 25 3 22 5 -3 12 0 14 6 5 12 9 -68 9
-170 0 -23 4 -42 9 -42 5 0 9 5 9 12 0 9 3 9 12 0 7 -7 15 -12 19 -12 5 0 8
61 7 135 l0 135 -42 0 -42 0 -35 -104 c-19 -57 -36 -103 -38 -101 -8 9 -67
195 -63 200 3 3 -16 5 -41 5 l-47 0 0 -135z m87 43 c-3 -7 -5 -2 -5 12 0 14 2
19 5 13 2 -7 2 -19 0 -25z m-60 -110 c-3 -8 -6 -5 -6 6 -1 11 2 17 5 13 3 -3
4 -12 1 -19z"/>
<path d="M3235 370 c-4 -6 -10 -23 -15 -38 -9 -30 -63 -178 -75 -205 -6 -14
-2 -17 24 -17 27 0 32 4 38 30 5 29 7 30 60 30 52 0 55 -2 66 -30 9 -23 18
-30 38 -30 l27 0 -40 112 c-22 62 -42 123 -45 136 -4 17 -12 22 -39 22 -18 0
-36 -5 -39 -10z m59 -16 c3 -8 2 -12 -4 -9 -6 3 -10 10 -10 16 0 14 7 11 14
-7z m4 -101 c12 -38 8 -43 -33 -43 -41 0 -46 6 -29 38 8 15 14 33 14 40 0 7 5
23 12 35 12 22 12 21 19 -8 4 -16 12 -44 17 -62z m-78 -61 c0 -5 -7 -9 -15 -9
-8 0 -12 4 -9 9 3 4 9 8 15 8 5 0 9 -4 9 -8z"/>
<path d="M3441 246 c0 -77 4 -136 10 -136 5 0 9 6 9 13 0 8 3 7 10 -3 5 -8 12
-11 16 -7 9 9 9 70 0 85 -4 7 -3 12 3 12 5 0 12 8 14 18 4 16 5 16 6 0 0 -10
8 -18 16 -18 8 0 27 -22 43 -50 22 -41 32 -50 55 -50 15 0 27 3 27 7 0 12 -62
103 -71 103 -5 0 -9 5 -9 10 0 6 5 10 11 10 6 0 17 6 25 14 12 13 12 16 -3 26
-16 10 -15 10 5 5 19 -6 22 -3 22 23 0 47 -31 66 -116 70 l-74 4 1 -136z m132
64 c3 -13 -3 -29 -16 -44 -31 -33 -63 -20 -69 28 -3 31 -1 37 22 44 30 11 56
0 63 -28z m-96 -46 c-3 -3 -12 -4 -19 -1 -8 3 -5 6 6 6 11 1 17 -2 13 -5z"/>
<path d="M3688 261 c-2 -67 0 -121 4 -121 4 0 5 -7 2 -15 -5 -11 1 -15 20 -15
28 0 30 3 26 71 -1 26 3 50 9 53 6 4 11 3 11 -2 0 -5 11 -21 25 -36 13 -14 22
-26 19 -26 -3 0 4 -13 16 -30 15 -22 30 -30 51 -30 16 0 29 2 29 5 0 3 -20 31
-45 64 -25 32 -45 64 -45 71 0 6 21 39 46 71 l46 60 -33 -3 c-29 -3 -40 -12
-76 -66 -23 -34 -45 -57 -48 -52 -4 6 -5 34 -3 63 3 50 2 52 -24 55 l-27 3 -3
-120z m160 64 c-3 -3 -9 2 -12 12 -6 14 -5 15 5 6 7 -7 10 -15 7 -18z m-118
-70 c0 -8 -2 -15 -4 -15 -2 0 -6 7 -10 15 -3 8 -1 15 4 15 6 0 10 -7 10 -15z"/>
<path d="M4010 377 c0 -3 18 -38 40 -80 32 -59 41 -87 42 -131 2 -54 3 -56 30
-56 27 0 28 2 28 50 0 37 10 69 40 131 22 45 40 83 40 85 0 2 -12 2 -26 1 -21
-2 -30 -11 -43 -42 -20 -50 -38 -81 -44 -75 -2 3 -12 30 -23 60 -17 50 -22 55
-52 58 -17 2 -32 1 -32 -1z m70 -78 c0 -6 -4 -7 -10 -4 -5 3 -10 11 -10 16 0
6 5 7 10 4 6 -3 10 -11 10 -16z"/>
<path d="M4560 288 c0 -120 17 -157 78 -177 37 -11 47 -11 77 3 53 25 66 60
64 171 l-1 95 -27 0 -26 0 -1 -99 c-1 -107 -10 -131 -48 -131 -12 0 -31 6 -41
14 -16 12 -19 27 -19 112 l-1 99 -27 3 -28 3 0 -93z m27 -95 c-3 -10 -5 -4 -5
12 0 17 2 24 5 18 2 -7 2 -21 0 -30z"/>
<path d="M4840 245 l0 -135 31 0 32 0 -5 50 c-5 51 -5 51 35 54 6 1 15 10 19
21 5 14 6 11 4 -10 -3 -19 5 -45 21 -72 20 -35 30 -43 54 -43 35 0 32 8 -26
84 -19 25 -30 46 -25 46 21 0 50 41 50 70 0 51 -32 70 -117 70 l-73 0 0 -135z
m124 79 c9 -8 16 -19 16 -23 0 -16 -27 -39 -52 -45 -27 -6 -28 -5 -28 39 0 41
2 45 24 45 14 0 32 -7 40 -16z"/>
<path d="M5497 363 c-3 -10 -15 -43 -26 -73 -11 -30 -17 -58 -15 -62 3 -5 2
-8 -3 -8 -7 0 -18 -25 -40 -93 -5 -16 -1 -18 22 -15 21 2 31 11 39 33 11 29
12 30 66 25 34 -3 55 -10 56 -17 1 -7 2 -20 3 -28 1 -10 12 -15 39 -15 20 0
32 4 26 8 -6 4 -16 25 -22 47 -6 22 -22 73 -36 113 -14 41 -26 80 -26 88 0 22
-76 19 -83 -3z m45 -44 c1 -19 5 -36 9 -39 5 -4 11 -20 15 -37 6 -30 5 -31
-34 -35 -45 -4 -45 -4 -18 76 9 26 16 54 16 63 0 31 11 5 12 -28z m55 -125
c-3 -3 -12 -4 -19 -1 -8 3 -5 6 6 6 11 1 17 -2 13 -5z"/>
<path d="M5701 245 l1 -135 79 0 c72 0 79 2 79 20 0 17 -7 20 -50 20 l-50 0 0
115 0 115 -30 0 -31 0 2 -135z m63 -114 c4 -5 -3 -7 -14 -4 -23 6 -26 13 -6
13 8 0 17 -4 20 -9z"/>
<path d="M5900 245 l0 -135 80 0 c75 0 80 1 80 21 0 19 -5 21 -50 17 -53 -3
-60 2 -60 48 0 22 4 24 45 24 42 0 45 2 45 26 0 24 -3 25 -42 22 -40 -2 -43
-1 -49 29 -7 37 8 47 64 41 26 -2 32 0 32 17 0 18 -8 20 -72 23 l-73 3 0 -136z
m93 -2 c-7 -2 -19 -2 -25 0 -7 3 -2 5 12 5 14 0 19 -2 13 -5z"/>
<path d="M6102 310 c2 -42 -1 -70 -7 -70 -6 0 -5 -3 1 -8 6 -4 8 -15 5 -25 -4
-10 -5 -35 -3 -57 4 -34 7 -40 28 -40 24 0 24 1 24 103 l0 102 66 -102 c59
-92 69 -103 95 -103 l29 0 0 135 0 135 -24 0 c-19 0 -25 -6 -28 -29 -2 -16 -2
-36 1 -44 8 -21 1 -117 -7 -117 -4 0 -23 27 -42 60 -20 35 -39 59 -47 56 -7
-3 -10 1 -7 9 9 24 -28 64 -59 65 l-29 0 4 -70z"/>
<path d="M6400 245 l0 -135 64 0 c74 0 111 11 139 43 37 43 45 84 26 150 -14
52 -65 77 -159 77 l-70 0 0 -135z m114 87 c41 1 66 -33 66 -89 0 -55 -22 -80
-77 -89 l-42 -6 -3 100 c-3 86 -1 99 12 92 8 -4 28 -8 44 -8z"/>
<path d="M6755 368 c-5 -14 -79 -213 -90 -241 -6 -14 -2 -17 23 -17 26 0 32 5
38 33 4 17 7 38 5 45 -1 6 3 12 9 12 5 0 9 -6 8 -12 -3 -12 7 -15 74 -17 21
-1 28 -7 33 -31 5 -25 11 -30 36 -30 16 0 29 2 29 5 0 7 -50 137 -59 155 -5 9
-12 31 -16 50 -10 47 -22 60 -57 60 -16 0 -31 -6 -33 -12z m47 -66 c-1 -1 5
-18 13 -38 8 -20 15 -40 15 -45 0 -16 -77 -10 -84 6 -3 8 -1 15 3 15 5 0 15
23 22 50 11 42 15 47 23 33 5 -10 9 -19 8 -21z m-45 -4 c-3 -8 -6 -5 -6 6 -1
11 2 17 5 13 3 -3 4 -12 1 -19z m83 -8 c0 -5 -4 -10 -10 -10 -5 0 -10 5 -10
10 0 6 5 10 10 10 6 0 10 -4 10 -10z m27 -102 c-3 -8 -6 -5 -6 6 -1 11 2 17 5
13 3 -3 4 -12 1 -19z"/>
<path d="M6962 245 c1 -135 1 -135 25 -135 27 0 42 28 22 41 -10 6 -10 9 -1 9
6 0 12 10 12 23 0 14 -3 18 -8 10 -4 -7 -13 -9 -21 -4 -12 8 -2 13 45 26 11 3
46 -19 45 -29 0 -3 7 -22 16 -41 14 -30 22 -35 51 -35 l34 0 -46 65 c-41 58
-43 65 -25 70 10 4 19 13 19 21 0 8 5 14 10 14 12 0 13 49 2 67 -13 20 -61 33
-123 33 l-59 0 2 -135z m126 65 c3 -36 -11 -51 -52 -55 -31 -3 -35 -1 -26 11
7 7 10 24 6 37 -7 31 1 39 39 35 24 -2 31 -8 33 -28z m26 -136 c5 -14 4 -15
-9 -4 -17 14 -19 20 -6 20 5 0 12 -7 15 -16z"/>
<path d="M7386 341 c-4 -5 -2 -12 3 -15 5 -4 12 -2 15 3 4 5 2 12 -3 15 -5 4
-12 2 -15 -3z"/>
</g>
</svg>
